# xmcd
#
# Track frame offsets: 
#        150
#        19330
#        38772
#        60727
#        81954
#        100264
#        125099
#        145809
#        161741
#        178986
#        198563
#
# Disc length: 2861 seconds
#
# Revision: 0
# Processed by: cddbd v1.5.2PL0 Copyright (c) Steve Scherf et al.
# Submitted via: ExactAudioCopy v1.0b1
#
DISCID=a00b2b0b
DTITLE=W.S.N.B. - Oktibbeha County
DYEAR=2009
DGENRE=Blues
TTITLE0=Take Your Blues Away
TTITLE1=Missippy Moon
TTITLE2=Give It All Away
TTITLE3=Oktibbeha
TTITLE4=Angel
TTITLE5=Phonecall From Leavenworth
TTITLE6=Jezebel
TTITLE7=Step Light
TTITLE8=Sweet Relief
TTITLE9=These Blues
TTITLE10=Break My Chain
EXTD=
EXTT0=
EXTT1=
EXTT2=
EXTT3=
EXTT4=
EXTT5=
EXTT6=
EXTT7=
EXTT8=
EXTT9=
EXTT10=
PLAYORDER=
